<?xml version="1.0" standalone="no"?><!DOCTYPE svg PUBLIC "-//W3C//DTD SVG 1.1//EN" "http://www.w3.org/Graphics/SVG/1.1/DTD/svg11.dtd"><svg t="1729068753299" class="icon" viewBox="0 0 1024 1024" version="1.1" xmlns="http://www.w3.org/2000/svg" p-id="5992" xmlns:xlink="http://www.w3.org/1999/xlink" width="48" height="48"><path d="M927.430491 249.710018m-62.435002 0a62.435002 62.435002 0 1 0 124.870003 0 62.435002 62.435002 0 1 0-124.870003 0Z" fill="#13227a" p-id="5993"></path><path d="M903.38012 511.805078c33.16672-48.910417 53.768472-97.670893 59.975986-143.192667a122.740856 122.740856 0 0 1-35.745687 5.997599 124.300231 124.300231 0 0 1-27.738894-3.358656c-5.367851 27.678918-17.992796 57.516971-36.765279 88.224676a771.02129 771.02129 0 0 0-102.708877-97.910797 771.561074 771.561074 0 0 0-33.586552-137.644889 294.482092 294.482092 0 0 1 77.608926 7.287083 123.550532 123.550532 0 0 1 25.039974-57.846839c-36.76528-10.555774-79.528158-14.604153-127.958766-10.885641-48.940405-100.939585-119.951972-162.325007-201.819194-162.325007s-152.938765 61.41541-201.819193 162.384983c-111.855214-8.126746-200.619674 22.760887-241.523297 93.562538-40.063959 69.422204-25.909626 160.165871 39.704103 256.037485-62.974785 92.962779-80.547749 185.115881-39.704103 255.917533 36.645328 63.454593 111.735262 94.852022 207.456937 94.852022 11.095557 0 22.461007-0.44982 34.06636-1.289484 48.940405 100.969573 119.951972 162.384983 201.819193 162.384983s152.938765-61.41541 201.819194-162.325007q18.53258 1.439424 35.985592 1.439424c97.58093 0 169.732041-32.986792 205.537704-95.061938 40.873635-70.98158 23.330659-163.284622-39.644127-256.247401z m-77.968782 0a645.041731 645.041731 0 0 1-55.687703 59.31625q1.619352-29.058365 1.64934-59.256274t-1.64934-59.376226a645.311623 645.311623 0 0 1 55.507775 59.31625z m-221.011509 181.127478a944.621782 944.621782 0 0 1-104.538144 52.119132 947.260726 947.260726 0 0 1-104.538144-52.119132 950.109585 950.109585 0 0 1-97.401001-64.474185 942.012827 942.012827 0 0 1-7.107155-116.593317 942.012827 942.012827 0 0 1 7.107155-116.593317 950.109585 950.109585 0 0 1 97.401001-64.474185 942.732539 942.732539 0 0 1 104.59812-52.119132 943.90207 943.90207 0 0 1 104.478168 52.119132 947.320702 947.320702 0 0 1 97.43099 64.474185 947.890474 947.890474 0 0 1 6.927226 116.533341 947.380678 947.380678 0 0 1-7.107154 116.563329 947.620582 947.620582 0 0 1-97.43099 64.624125z m81.807245 22.940815a646.691071 646.691071 0 0 1-23.540574 77.968782 646.211263 646.211263 0 0 1-79.318242-18.592556q26.029578-13.164729 52.269072-28.278677t50.409816-31.037573z m-269.891937 59.346238a651.609102 651.609102 0 0 1-79.378218 18.622544 650.379594 650.379594 0 0 1-23.540575-77.968782q24.620142 16.193516 50.619733 31.187513c17.243096 9.986002 34.726096 19.402232 52.239084 28.218701z m-186.405366-203.918353a651.009342 651.009342 0 0 1-55.777667-59.376226 647.140891 647.140891 0 0 1 55.777667-59.376226q-1.619352 29.118341-1.649339 59.376226t1.589364 59.376226z m83.486573-263.354555a649.330014 649.330014 0 0 1 23.540575-77.968782 640.633496 640.633496 0 0 1 79.378218 18.622544q-26.29947 13.224705-52.29906 28.218701t-50.679709 31.067561z m372.690778 0q-24.380238-16.013588-50.589744-31.157525t-52.119132-28.188713a648.400387 648.400387 0 0 1 79.258266-18.472604 648.070519 648.070519 0 0 1 23.390634 77.758866z m-186.345389-245.511699c52.119132 0 99.770053 40.993587 136.385393 108.796439a790.213606 790.213606 0 0 0-136.115501 40.003982 773.42033 773.42033 0 0 0-136.56532-40.153922c36.555364-67.712888 84.116321-108.646499 136.235452-108.646499zM110.467595 287.165022c26.059566-44.98199 85.31584-65.973585 162.265031-63.694498a773.000498 773.000498 0 0 0-33.466601 137.944769 772.760594 772.760594 0 0 0-102.828828 98.000761c-40.423815-65.433801-52.059156-127.149091-26.029578-172.251032z m0 449.520016c-26.059566-44.98199-14.364249-106.907195 26.059566-172.520924a788.684218 788.684218 0 0 0 102.678888 97.850821 773.180426 773.180426 0 0 0 33.526577 138.364601c-77.069142 2.309075-136.265441-18.68252-162.325007-63.66451z m389.274138 224.73002c-52.059156 0-99.710077-40.933611-136.295428-108.676487a773.510294 773.510294 0 0 0 136.595308-40.123934 789.733798 789.733798 0 0 0 136.085513 39.973995c-36.675316 67.83284-84.326237 108.826427-136.445369 108.826426z m389.214163-224.700032c-26.029578 44.98199-85.285852 65.973585-162.235043 63.694498a773.330366 773.330366 0 0 0 33.496588-138.094709 774.050078 774.050078 0 0 0 102.768853-98.000761c40.393827 65.523765 52.029168 127.239055 25.969602 172.400972z" fill="#13227a" p-id="5994"></path></svg>