<?xml version="1.0" standalone="no"?><!DOCTYPE svg PUBLIC "-//W3C//DTD SVG 1.1//EN" "http://www.w3.org/Graphics/SVG/1.1/DTD/svg11.dtd"><svg t="1727972448507" class="icon" viewBox="0 0 1024 1024" version="1.1" xmlns="http://www.w3.org/2000/svg" p-id="3618" xmlns:xlink="http://www.w3.org/1999/xlink" width="48" height="48"><path d="M597.333333 128v192a85.333333 85.333333 0 0 0 85.333334 85.333333h192v320a170.666667 170.666667 0 0 1-170.666667 170.666667H320a170.666667 170.666667 0 0 1-170.666667-170.666667V298.666667a170.666667 170.666667 0 0 1 170.666667-170.666667h277.333333z m-160 320a32 32 0 0 0-32 32V576h-96a32 32 0 0 0 0 64H405.333333v96a32 32 0 0 0 64 0V640h96a32 32 0 0 0 0-64H469.333333v-96a32 32 0 0 0-32-32zM661.333333 128l213.333334 213.333333h-128a85.333333 85.333333 0 0 1-85.333334-85.333333V128z" fill="#A7AEC8" p-id="3619"></path></svg>