<svg xmlns="http://www.w3.org/2000/svg" xmlns:xlink="http://www.w3.org/1999/xlink" width="60.349609375" height="68" viewBox="0 0 60.349609375 68" fill="none">
<path     fill="url(#linear_fill_GLQXf_EsK5RqtBVDuJfcI_0)"  d="M25.99 1.14L4.18 13.9C1.59 15.41 0 18.21 0 21.24L0 46.76C0 49.79 1.59 52.59 4.18 54.1L25.99 66.86C28.58 68.38 31.77 68.38 34.36 66.86L56.17 54.1C58.76 52.59 60.35 49.79 60.35 46.76L60.35 21.24C60.35 18.21 58.76 15.41 56.17 13.9L34.36 1.14C31.77 -0.38 28.58 -0.38 25.99 1.14Z">
</path>
<path fill-rule="evenodd"  fill="url(#linear_border_GLQXf_EsK5RqtBVDuJfcI_0)"  d="M4.18 13.9L25.99 1.14C28.58 -0.38 31.77 -0.38 34.36 1.14L56.17 13.9C58.76 15.41 60.35 18.21 60.35 21.24L60.35 46.76C60.35 49.79 58.76 52.59 56.17 54.1L34.36 66.86C31.77 68.38 28.58 68.38 25.99 66.86L4.18 54.1C1.59 52.59 0 49.79 0 46.76L0 21.24C0 18.21 1.59 15.41 4.18 13.9ZM1.45493 17.1913Q2.52344 15.3135 4.37481 14.2342L4.37532 14.2339L26.1853 1.47386Q28.0376 0.386796 30.175 0.386796Q32.3124 0.386796 34.1642 1.47359L55.9747 14.2339Q57.8266 15.3135 58.8951 17.1913Q59.9632 19.0684 59.9632 21.24L59.9632 46.76Q59.9632 48.9316 58.8951 50.8087Q57.8266 52.6864 55.9752 53.7658L34.1647 66.5261Q32.3124 67.6132 30.175 67.6132Q28.0376 67.6132 26.1858 66.5264L4.37532 53.7661Q2.52344 52.6865 1.45493 50.8087Q0.386796 48.9316 0.386796 46.76L0.386796 21.24Q0.386796 19.0684 1.45493 17.1913Z">
</path>
<defs>
<linearGradient id="linear_fill_GLQXf_EsK5RqtBVDuJfcI_0" x1="113.86328125" y1="141.35546875" x2="-24.1962890625" y2="-65.62890625" gradientUnits="userSpaceOnUse">
<stop offset="0.3397347927093506" stop-color="#0E51FF"  />
<stop offset="0.5609442591667175" stop-color="#0047FF"  />
<stop offset="0.9802824258804321" stop-color="#FFFFFF"  />
</linearGradient>
<linearGradient id="linear_border_GLQXf_EsK5RqtBVDuJfcI_0" x1="64.1748046875" y1="90.525390625" x2="12.75" y2="0" gradientUnits="userSpaceOnUse">
<stop offset="0.6246339082717896" stop-color="#FFFFFF" stop-opacity="0" />
<stop offset="0.9377076029777527" stop-color="#FFFFFF"  />
</linearGradient>
</defs>
</svg>
