<?xml version="1.0" standalone="no"?><!DOCTYPE svg PUBLIC "-//W3C//DTD SVG 1.1//EN" "http://www.w3.org/Graphics/SVG/1.1/DTD/svg11.dtd"><svg t="1727972246368" class="icon" viewBox="0 0 1024 1024" version="1.1" xmlns="http://www.w3.org/2000/svg" p-id="21165" xmlns:xlink="http://www.w3.org/1999/xlink" width="48" height="48"><path d="M512.512 784.384c-7.68 0-14.848 0-18.432-3.584l-410.624-238.592c-11.264-3.584-18.432-18.432-18.432-33.792 0-14.848 7.68-26.112 18.432-33.792l55.808-33.792c11.264-3.584 22.528-3.584 26.112 7.68 3.584 7.68 3.584 18.432-7.68 26.112 0 0-52.224 29.696-55.808 33.792-3.584 3.584 0 3.584 0 3.584l410.624 235.008 410.624-235.008s3.584-3.584 0-3.584-55.808-33.792-55.808-33.792c-7.68-3.584-11.264-14.848-7.68-26.112 3.584-7.68 14.848-11.264 26.112-7.68l55.808 33.792c11.264 7.68 18.432 18.432 18.432 33.792 0 14.848-7.68 26.112-18.432 33.792l-406.528 235.008c-7.68 3.584-14.848 7.168-22.528 7.168z m0 0" fill="#ffffff" p-id="21166"></path><path d="M941.568 355.328l-417.792 242.688c-7.68 3.584-18.432 3.584-26.112 0L83.456 355.328c-18.432-11.264-18.432-37.376 0-44.544l417.792-242.688c7.68-3.584 18.432-3.584 26.112 0l417.792 242.688c15.36 7.168 15.36 33.28-3.584 44.544z m0 0" fill="#ffffff" p-id="21167"></path><path d="M512.512 958.464c-7.68 0-14.848 0-18.432-3.584l-410.624-235.008c-11.264-7.68-18.432-22.528-18.432-37.376 0-14.848 7.68-26.112 18.432-33.792l59.904-33.792c7.68-3.584 18.432-3.584 26.112 7.68 3.584 7.68 3.584 18.432-7.68 26.112 0 0-55.808 33.792-59.904 33.792-3.584 0 0 3.584 0 3.584l410.624 235.008 410.624-235.008s3.584-3.584 0-3.584-63.488-37.376-63.488-37.376c-7.68-3.584-11.264-14.848-7.68-26.112 3.584-7.68 14.848-11.264 26.112-7.68l63.488 37.376c11.264 7.68 18.432 18.432 18.432 33.792 0 14.848-7.68 26.112-18.432 33.792l-406.528 235.008c-7.68 7.168-14.848 7.168-22.528 7.168z" fill="#ffffff" p-id="21168"></path></svg>