<?xml version="1.0" standalone="no"?><!DOCTYPE svg PUBLIC "-//W3C//DTD SVG 1.1//EN" "http://www.w3.org/Graphics/SVG/1.1/DTD/svg11.dtd"><svg t="1727971030289" class="icon" viewBox="0 0 1024 1024" version="1.1" xmlns="http://www.w3.org/2000/svg" p-id="1318" xmlns:xlink="http://www.w3.org/1999/xlink" width="48" height="48"><path d="M437 701.2v-65.9h-61.36v65.9h-48.87v-65.9H262v-28.41h64.77V452.34H262v-28.41h64.77v-67.05l25-35.22 23.87 35.22v65.92h60.22v-65.92l25-35.22 25 35.22v65.92h60.23v-65.92l25-35.22 25 35.22v67.05h60.23v-67.05l25-35.22 25 35.22v67.05H762v28.41h-55.68V608H762v28.41h-55.68v65.91h-50v-65.89h-60.23v65.91h-50v-65.91h-60.23v65.91H437z m244.32-96.59a14.78 14.78 0 1 0 14.77 14.78 15 15 0 0 0-14.77-14.78z m-110.23 0a14.78 14.78 0 1 0 14.77 14.78c1.14-8-5.68-14.78-14.77-14.78z m-110.23 0a14.78 14.78 0 1 0 14.78 14.78c1.13-8-5.69-14.78-14.78-14.78z m-109.09 0a14.78 14.78 0 1 0 14.78 14.78 15 15 0 0 0-14.78-14.78z m244.32 2.28h60.23V452.34h-60.23z m-110.23 0h60.23V452.34h-60.23z m-110.22 0h60.22V452.34h-60.22z m305.68-185.23a14.77 14.77 0 1 0 14.77 14.77 15 15 0 0 0-14.77-14.77z m-110.23 0a14.77 14.77 0 1 0 14.77 14.77c1.14-7.95-5.68-14.77-14.77-14.77z m-110.23 0a14.77 14.77 0 1 0 14.78 14.77c1.13-7.95-5.69-14.77-14.78-14.77z m-109.09 0a14.77 14.77 0 1 0 14.78 14.77 15 15 0 0 0-14.78-14.77z m0 0" fill="#0EBBCB" p-id="1319"></path><path d="M512 64.25C264.71 64.25 64.25 264.71 64.25 512S264.71 959.75 512 959.75 959.75 759.29 959.75 512 759.29 64.25 512 64.25zM512 900c-214.3 0-388-173.7-388-388s173.7-388 388-388 388 173.7 388 388-173.7 388-388 388z" fill="#0EBBCB" p-id="1320"></path></svg>