<?xml version="1.0" standalone="no"?><!DOCTYPE svg PUBLIC "-//W3C//DTD SVG 1.1//EN" "http://www.w3.org/Graphics/SVG/1.1/DTD/svg11.dtd"><svg t="1727971824325" class="icon" viewBox="0 0 1024 1024" version="1.1" xmlns="http://www.w3.org/2000/svg" p-id="11251" xmlns:xlink="http://www.w3.org/1999/xlink" width="48" height="48"><path d="M853.5 512.2l-58.3 58.3-78.3 78.2c-92.9-46.3-156.8-142.2-156.8-253 0-88.8 41-167.9 105-219.7 65.5-15.7 137.3 2.1 188.3 53.1 78.1 78.2 78.1 204.9 0.1 283.1z" fill="#9A9A9A" opacity=".5" p-id="11252"></path><path d="M512 877.9L272.4 638.3c-6.7-6.7-6.7-17.6 0-24.4 6.7-6.7 17.7-6.7 24.4 0L512 829.1l192.7-192.7 78.3-78.2 58.3-58.3c71.2-71.3 71.2-187.4 0-258.7-45.3-45.3-109.6-63.5-172.1-48.5-32.8 7.8-62.8 24.6-86.7 48.5L512 311.8l-70.5-70.5c-34.5-34.6-80.4-53.6-129.3-53.6-48.9 0-94.8 19-129.4 53.6s-53.6 80.5-53.6 129.3c0 48.8 19 94.8 53.6 129.3 6.7 6.7 6.7 17.6 0 24.4-6.7 6.7-17.6 6.7-24.4 0-41.1-41.1-63.7-95.7-63.7-153.7 0-58.1 22.6-112.7 63.7-153.7 41.1-41.1 95.7-63.7 153.8-63.7 58.1 0 112.7 22.6 153.7 63.7L512 263l46.1-46.1c28.5-28.5 64.2-48.4 103.1-57.7 35.5-8.5 72.9-7.9 108.1 1.7 36.3 9.9 69.6 29.3 96.4 56 41 41.1 63.6 95.7 63.6 153.7s-22.6 112.6-63.6 153.7l-58.3 58.3-78.4 78.2-217 217.1z" fill="#9A9A9A" p-id="11253"></path><path d="M232.7 592.1c-4.4 0-8.8-1.7-12.2-5-6.7-6.7-6.7-17.6 0-24.4l160.4-160.4c6.8-6.8 15.9-10.6 25.6-10.6s18.7 3.8 25.6 10.6l80.2 80.2c0.6 0.6 1.7 0.6 2.3 0L675 322.1c6.7-6.7 17.7-6.7 24.4 0 6.7 6.7 6.7 17.6 0 24.4L538.9 506.8c-14.1 14.1-37 14.1-51.1 0l-80.2-80.2c-0.6-0.6-1.7-0.6-2.3 0L244.9 587c-3.4 3.4-7.8 5.1-12.2 5.1z" fill="#9A9A9A" p-id="11254"></path></svg>