<?xml version="1.0" standalone="no"?><!DOCTYPE svg PUBLIC "-//W3C//DTD SVG 1.1//EN" "http://www.w3.org/Graphics/SVG/1.1/DTD/svg11.dtd"><svg t="1727971782324" class="icon" viewBox="0 0 1024 1024" version="1.1" xmlns="http://www.w3.org/2000/svg" p-id="10611" xmlns:xlink="http://www.w3.org/1999/xlink" width="48" height="48"><path d="M897.1 812.3H132.9c-18.2 0-32.9-14.7-32.9-32.9V244.7c0-18.2 14.7-32.9 32.9-32.9h764.2c18.2 0 32.9 14.7 32.9 32.9v534.6c0 18.2-14.7 33-32.9 33z m-743.4-41.5h722.7c6.7 0 12.1-5.4 12.1-12.1V265.5c0-6.7-5.4-12.1-12.1-12.1H153.7c-6.7 0-12.1 5.4-12.1 12.1v493.1c-0.1 6.7 5.4 12.2 12.1 12.2z" fill="#9A9A9A" p-id="10612"></path><path d="M351.3 572.1c-58.7 0-106.5-47.8-106.5-106.5s47.8-106.4 106.5-106.4S457.8 407 457.8 465.7 410 572.1 351.3 572.1z m0-171.4c-35.8 0-65 29.1-65 64.9 0 35.8 29.1 65 65 65s65-29.1 65-65c0-35.8-29.1-64.9-65-64.9z" fill="#9A9A9A" p-id="10613"></path><path d="M500.5 684.7H459c0-59.4-48.3-107.7-107.7-107.7s-107.7 48.3-107.7 107.7h-41.5c0-82.2 66.9-149.2 149.2-149.2s149.2 67 149.2 149.2z" fill="#9A9A9A" p-id="10614"></path><path d="M573.4 388h261.5v39.5H573.4zM573.4 504h261.5v39.5H573.4zM573.4 620h261.5v39.5H573.4z" fill="#9A9A9A" p-id="10615"></path></svg>