<svg xmlns="http://www.w3.org/2000/svg" xmlns:xlink="http://www.w3.org/1999/xlink" width="56" height="44" viewBox="0 0 56 44" fill="none">
<circle cx="28" cy="22" r="22"   fill="url(#linear_fill_F6jqpRpp5vW3rljB9fbXZ)" >
</circle>
<g opacity="0">
<path   fill="rgba(80, 80, 80, 1)"  d="M20.25 28L20.25 27L21 27L20.25 27C20.25 25.4812 21.4812 24.25 23 24.25L23 24.25L33 24.25L33 25L33 24.25C34.5188 24.25 35.75 25.4812 35.75 27L35 27L35.75 27L35.75 28L34.25 28L34.25 27L34.25 27C34.25 26.3096 33.6904 25.75 33 25.75L33 25.75L23 25.75L23 25L23 25.75C22.3096 25.75 21.75 26.3096 21.75 27L21.75 27L21.75 28L20.25 28ZM21 28.75C20.5858 28.75 20.25 28.4142 20.25 28C20.25 27.5858 20.5858 27.25 21 27.25C21.4142 27.25 21.75 27.5858 21.75 28C21.75 28.4142 21.4142 28.75 21 28.75ZM35 28.75C34.5858 28.75 34.25 28.4142 34.25 28C34.25 27.5858 34.5858 27.25 35 27.25C35.4142 27.25 35.75 27.5858 35.75 28C35.75 28.4142 35.4142 28.75 35 28.75Z">
</path>
<path   fill="rgba(80, 80, 80, 1)"  d="M35.75 36L35.75 37L35 37L35.75 37L35 37L35.75 37Q35.75 37.559 35.5336 38.0707Q35.3248 38.5643 34.9445 38.9445Q34.5643 39.3248 34.0707 39.5336Q33.559 39.75 33 39.75L33 39L33 39.75L23 39.75L23 39L23 39.75L23 39L23 39.75Q22.441 39.75 21.9293 39.5336Q21.4357 39.3248 21.0555 38.9445Q20.6752 38.5643 20.4664 38.0707Q20.25 37.559 20.25 37L21 37L20.25 37L20.25 36L21.75 36L21.75 37L21.75 37Q21.75 37.5178 22.1161 37.8839Q22.4822 38.25 23 38.25L23 38.25L23 38.25L33 38.25L33 38.25Q33.5178 38.25 33.8839 37.8839Q34.25 37.5178 34.25 37L34.25 37L34.25 37L34.25 36L35.75 36ZM35 35.25C35.4142 35.25 35.75 35.5858 35.75 36C35.75 36.4142 35.4142 36.75 35 36.75C34.5858 36.75 34.25 36.4142 34.25 36C34.25 35.5858 34.5858 35.25 35 35.25ZM21 35.25C21.4142 35.25 21.75 35.5858 21.75 36C21.75 36.4142 21.4142 36.75 21 36.75C20.5858 36.75 20.25 36.4142 20.25 36C20.25 35.5858 20.5858 35.25 21 35.25Z">
</path>
<path    stroke="rgba(80, 80, 80, 1)" stroke-width="1.5"  stroke-linecap="round"  d="M18 32L38 32">
</path>
</g>
<defs>
<linearGradient id="linear_fill_F6jqpRpp5vW3rljB9fbXZ" x1="6" y1="44" x2="50" y2="0" gradientUnits="userSpaceOnUse">
<stop offset="0" stop-color="#39BDFF"  />
<stop offset="1" stop-color="#64DDFF"  />
</linearGradient>
</defs>
</svg>
