<?xml version="1.0" standalone="no"?><!DOCTYPE svg PUBLIC "-//W3C//DTD SVG 1.1//EN" "http://www.w3.org/Graphics/SVG/1.1/DTD/svg11.dtd"><svg t="1727966094823" class="icon" viewBox="0 0 1024 1024" version="1.1" xmlns="http://www.w3.org/2000/svg" p-id="1318" xmlns:xlink="http://www.w3.org/1999/xlink" width="48" height="48"><path d="M688.796851 617.831235a311.674448 311.674448 0 0 0 119.485871-236.92378V86.768694a35.807362 35.807362 0 0 0-23.999572-34.367387l-22.143606-7.87186a816.241461 816.241461 0 0 0-531.734528 0l-22.719595 7.679863c-14.719738 5.05591-24.543563 18.879664-24.319567 34.367388v294.71475A310.810464 310.810464 0 0 0 304.099703 617.607239l-6.303887 1.791968C144.230551 643.206783 31.240564 774.852438 32.00855 929.185689v50.783095C32.00855 1004.288351 51.848196 1024 76.32776 1024h839.34505c11.743791 0 23.03959-4.639917 31.359441-12.89577a43.839219 43.839219 0 0 0 12.959769-31.135446v-50.815095c-0.511991-156.06122-115.741938-288.314864-271.195169-311.354454zM429.153476 165.839286h36.031358V130.063923a28.223497 28.223497 0 0 1 28.191498-25.855539c14.751737 0 27.039518 11.263799 28.223497 25.855539v35.775363h36.031358c15.519724 0 28.0955 12.479778 28.0955 27.935502a27.999501 27.999501 0 0 1-28.0955 27.903503H521.599829v35.775363a28.031501 28.031501 0 0 1-13.439761 26.207533 28.479493 28.479493 0 0 1-29.567473 0 28.031501 28.031501 0 0 1-13.407761-26.207533V221.678291h-36.031358a27.999501 27.999501 0 0 1-28.0955-27.903503c0-15.423725 12.575776-27.935502 28.0955-27.935502z m-147.389375 226.555964a27.51951 27.51951 0 0 1-22.655596-4.991911 27.039518 27.039518 0 0 1 10.751808-47.999145 1100.012406 1100.012406 0 0 1 452.791935 0 27.48751 27.48751 0 1 1-11.839789 53.695044 1047.02135 1047.02135 0 0 0-429.048358-0.735987z m27.199516 500.983077a75.902648 75.902648 0 0 1-84.702492-50.5591 75.134662 75.134662 0 0 1 37.503332-90.782383c0-13.983751 1.439974-27.935502 3.071946-41.695257 3.167944-13.663757 16.28771-22.719595 30.30346-20.863628 13.983751 1.855967 24.287567 13.983751 23.743577 27.999501-1.279977 9.855824-1.983965 19.711649-2.527955 29.535474a75.198661 75.198661 0 0 1 54.975021 76.254642 75.326658 75.326658 0 0 1-62.718883 70.110751h0.351994z m252.283506-331.930088a93.118341 93.118341 0 0 1-67.198803 27.743506 95.678296 95.678296 0 0 1-67.774793-27.743506 23.00759 23.00759 0 0 1-6.495884-15.903717 20.863628 20.863628 0 0 1 6.687881-15.391725 22.239604 22.239604 0 0 1 15.67972-6.431886 21.151623 21.151623 0 0 1 15.487724 6.623882 52.159071 52.159071 0 0 0 72.062717 0 20.991626 20.991626 0 0 1 16.031714-6.463885 22.079607 22.079607 0 0 1 21.791612 22.719596 20.703631 20.703631 0 0 1-6.655881 14.847735h0.383993z m210.460251 333.178065c0 7.231871-2.879949 14.143748-8.031857 19.231658a27.48751 27.48751 0 0 1-19.359655 7.999857 28.031501 28.031501 0 0 1-19.455654-7.903859 26.751523 26.751523 0 0 1-7.935858-19.327656v-75.326658c0-10.175819-4.543919-19.839647-12.415779-26.39953a34.943378 34.943378 0 0 0-28.319496-7.583864 35.839362 35.839362 0 0 0-28.799487 35.775362v73.374693c0 15.007733-12.287781 27.199516-27.423511 27.199516a27.135517 27.135517 0 0 1-19.455654-7.87186 26.751523 26.751523 0 0 1-7.935858-19.327656v-75.166661a89.438407 89.438407 0 0 1 54.079036-82.302534c0-8.223854-1.279977-16.479706-2.367957-24.70356a27.583509 27.583509 0 1 1 54.079036-7.679863c1.087981 9.279835 1.983965 17.887681 2.527955 27.903503a88.542423 88.542423 0 0 1 70.270749 86.782454l0.54399 75.326658z" fill="#54BCBD" p-id="1319"></path><path d="M296.003847 798.372019a20.895628 20.895628 0 0 0-19.327655 12.799772 20.639632 20.639632 0 0 0 4.543919 22.623597 21.023626 21.023626 0 0 0 22.783594 4.47992 20.76763 20.76763 0 0 0-7.999858-39.903289z" fill="#54BCBD" p-id="1320"></path></svg>