<?xml version="1.0" standalone="no"?><!DOCTYPE svg PUBLIC "-//W3C//DTD SVG 1.1//EN" "http://www.w3.org/Graphics/SVG/1.1/DTD/svg11.dtd"><svg t="1727966291389" class="icon" viewBox="0 0 1024 1024" version="1.1" xmlns="http://www.w3.org/2000/svg" p-id="2389" xmlns:xlink="http://www.w3.org/1999/xlink" width="48" height="48"><path d="M733.980531 558.117419c-128.613329 0-232.94129 104.290789-232.94129 232.941291s104.290789 232.94129 232.94129 232.94129 232.94129-104.290789 232.94129-232.94129-104.290789-232.94129-232.94129-232.941291z m125.813078 180.616234L717.41444 881.063259a26.738686 26.738686 0 0 1-37.778616 0l-71.530323-71.530323a26.713905 26.713905 0 1 1 37.778617-37.778616l52.684381 52.634819 123.434103-123.434103a26.701515 26.701515 0 1 1 37.729054 37.778617z m0 0" fill="#95CDE2" p-id="2390"></path><path d="M428.331821 791.009148c0-168.808093 136.840618-305.64871 305.64871-305.64871a304.607909 304.607909 0 0 1 211.171192 84.689027v-82.830453c0-72.769372-61.345337-131.958763-136.65476-131.958763h-28.869851s-1.016021-33.454334-1.016021-50.801026v-50.801026C778.623482 113.620832 654.346825 0 501.076412 0s-277.547069 113.620832-277.547069 253.757321v101.502928h-29.947825C118.210142 355.260249 57.001101 414.449639 57.001101 487.219012v395.789555C57.001101 955.839892 118.222533 1015.029282 193.581518 1015.029282h332.498911a304.806157 304.806157 0 0 1-97.748608-224.020134zM334.548171 253.757321c0-84.119065 74.541213-152.254392 166.528241-152.254393s166.528242 68.147718 166.528242 152.254393v101.502928H334.548171z" fill="#95CDE2" p-id="2391"></path></svg>