<?xml version="1.0" standalone="no"?><!DOCTYPE svg PUBLIC "-//W3C//DTD SVG 1.1//EN" "http://www.w3.org/Graphics/SVG/1.1/DTD/svg11.dtd"><svg t="1727966183703" class="icon" viewBox="0 0 1024 1024" version="1.1" xmlns="http://www.w3.org/2000/svg" p-id="1755" xmlns:xlink="http://www.w3.org/1999/xlink" width="48" height="48"><path d="M596.2 371.6c21.6 0 39 17.5 39.1 39.1 0 10.8 1.1 35.5 11.9 35.5 14.5 0 27.2-24.7 27.2-35.5 0-43.1-35-78.1-78.1-78.1-10.8 0-32 22.6-32 33.4-0.1 10.6 21.1 5.6 31.9 5.6zM884.1 289C835.3 173.2 721.8 98.1 596.2 98.2c-10.8 0-32 22.6-32 33.4 0 10.8 21.2 5.7 32 5.7 150.7 0 273.4 122.7 273.4 273.4 0 10.8-0.1 35.5 10.7 35.5 17.4 0 28.3-24.7 28.3-35.5 0.1-41.9-8.2-83.2-24.5-121.7z" fill="#95CDE2" p-id="1756"></path><path d="M596.2 254.4c86.1 0 156.2 70.1 156.2 156.2 0 10.8 1.1 35.5 11.9 35.5 14.5 0 27.2-24.7 27.2-35.5 0-51.8-20.6-101.5-57.2-138.1a195.36 195.36 0 0 0-138.1-57.2c-10.8 0-32 22.6-32 33.4 0 10.8 21.2 5.7 32 5.7zM834.7 742.3c19 19.1 22.3 75 3.3 94.1l-37.8 9.5c-25.5 25.5-59.1 41-99.7 46.2-10.1 1.3-20.2 1.9-30.4 1.9-29.6 0-61.5-5-95.3-14.9-91.8-27-188.3-87.8-271.6-171.2C219.8 624.5 159 528 132 436.3c-13.4-45.7-23.3-84.1-8-134.8 15.5-51.1 29.7-69.4 46.2-91.5 14.5-19.6 29.5-33.6 29.5-33.6 19.1-19 50-19 69 0L420.4 328c45.7 46.5 44.6 72.5 19.1 100.5l-35 36.6c-14.9 14.5-10.2 48.5 36.6 104.5 50.2 60 110.5 81.7 130.1 62.1l42.5-41.4c19.1-19 50-19 69 0l152 152z" fill="#95CDE2" p-id="1757"></path><path d="M833.3 776.6c19 19.1 19 50 0 69l-34.5 34.5c-25.5 25.5-59.1 41-99.7 46.2-10.1 1.3-20.2 1.9-30.4 1.9-29.6 0-61.5-5-95.3-14.9-91.8-27-188.3-87.8-271.6-171.2-83.4-83.4-144.2-179.9-171.2-271.6-13.4-45.7-17.8-88-13.1-125.7 5.1-40.7 20.7-74.2 46.2-99.7l34.5-34.5c19.1-19 50-19 69 0L419 362.4c19 19.1 19 50 0 69l-34.5 34.5c-19.5 19.5-0.1 82.8 55.2 138.1 55.3 55.3 118.5 74.8 138.1 55.2l34.5-34.5c19.1-19 50-19 69 0l152 151.9zM583.6 388.2c21.6 0 39 17.5 39.1 39.1 0 10.8 8.7 19.5 19.5 19.5s19.5-8.7 19.5-19.5c0-43.1-35-78.1-78.1-78.1-10.8 0-19.5 8.7-19.5 19.5-0.1 10.7 8.7 19.5 19.5 19.5zM871.5 305.6c-48.8-115.7-162.3-190.9-287.9-190.8-10.8 0-19.5 8.7-19.5 19.5s8.7 19.5 19.5 19.5c150.7 0 273.4 122.7 273.4 273.4 0 10.8 8.7 19.5 19.5 19.5S896 438 896 427.2c0.1-41.7-8.3-83.1-24.5-121.6z" fill="#95CDE2" p-id="1758"></path><path d="M583.6 271c86.1 0 156.2 70.1 156.2 156.2 0 10.8 8.7 19.5 19.5 19.5s19.5-8.7 19.5-19.5c0-51.8-20.6-101.5-57.2-138.1a195.36 195.36 0 0 0-138.1-57.2c-10.8 0-19.5 8.7-19.5 19.5 0 10.9 8.8 19.6 19.6 19.6z" fill="#95CDE2" p-id="1759"></path></svg>