<?xml version="1.0" standalone="no"?><!DOCTYPE svg PUBLIC "-//W3C//DTD SVG 1.1//EN" "http://www.w3.org/Graphics/SVG/1.1/DTD/svg11.dtd"><svg t="1727971594769" class="icon" viewBox="0 0 1024 1024" version="1.1" xmlns="http://www.w3.org/2000/svg" p-id="7136" xmlns:xlink="http://www.w3.org/1999/xlink" width="48" height="48"><path d="M859.428571 806.034286c0 39.570286-32.731429 71.68-73.142857 71.68-8.448 0-16.859429-1.426286-24.868571-4.278857l-247.113143-81.078858a7.497143 7.497143 0 0 0-4.644571 0L262.582857 873.435429c-37.924571 13.385143-79.798857-5.778286-93.513143-42.788572a70.363429 70.363429 0 0 1-4.461714-24.649143V253.878857C164.571429 194.450286 213.686857 146.285714 274.285714 146.285714h475.428572c60.598857 0 109.714286 48.164571 109.714285 107.593143v552.118857zM804.571429 361.398857H219.428571v444.562286a18.066286 18.066286 0 0 0 22.454858 17.481143l2.048-0.621715 265.728-87.661714a7.497143 7.497143 0 0 1 4.681142 0L780.068571 822.857143a18.358857 18.358857 0 0 0 24.356572-14.774857L804.571429 806.034286V361.435429zM749.714286 200.045714h-475.428572c-29.110857 0.073143-53.138286 22.235429-54.747428 50.614857L219.428571 253.878857v53.76h585.142858v-53.76c0.073143-28.416-22.564571-51.968-51.638858-53.723428l-3.218285-0.073143z" fill="#6C6C6C" p-id="7137"></path><path d="M320 484.571429v182.857142h-54.857143v-182.857142z" fill="#6C6C6C" p-id="7138"></path></svg>