<?xml version="1.0" standalone="no"?><!DOCTYPE svg PUBLIC "-//W3C//DTD SVG 1.1//EN" "http://www.w3.org/Graphics/SVG/1.1/DTD/svg11.dtd"><svg t="1727971725618" class="icon" viewBox="0 0 1024 1024" version="1.1" xmlns="http://www.w3.org/2000/svg" p-id="10305" xmlns:xlink="http://www.w3.org/1999/xlink" width="48" height="48"><path d="M802.6 727.9L591.5 516.8l211.1-211.1c21-21 21-55.4 0-76.5-21-21-55.4-21-76.5 0L515 440.3 303.9 229.2c-21-21-55.4-21-76.5 0-21 21-21 55.4 0 76.5l211.1 211.1-211.1 211.1c-21 21-21 55.4 0 76.5 21 21 55.4 21 76.5 0L515 593.3l211.1 211.1c21 21 55.4 21 76.5 0s21.1-55.4 0-76.5z" fill="#707070" p-id="10306"></path></svg>