<?xml version="1.0" standalone="no"?><!DOCTYPE svg PUBLIC "-//W3C//DTD SVG 1.1//EN" "http://www.w3.org/Graphics/SVG/1.1/DTD/svg11.dtd"><svg t="1727971478966" class="icon" viewBox="0 0 1024 1024" version="1.1" xmlns="http://www.w3.org/2000/svg" p-id="5350" xmlns:xlink="http://www.w3.org/1999/xlink" width="48" height="48"><path d="M688 558.208l158.464 1.706667c11.690667 0.128 22.570667 6.4 28.501333 16.469333l80.725334 136.362667c5.973333 10.069333 6.101333 22.357333 0.384 32.298666l-77.781334 134.656a31.957333 31.957333 0 0 1-28.16 15.872l-158.464-1.706666a33.621333 33.621333 0 0 1-28.501333-16.469334l-80.725333-136.405333a31.957333 31.957333 0 0 1-0.341334-32.298667l77.738667-134.656a31.957333 31.957333 0 0 1 28.16-15.829333zM458.965333 416.853333c18.176 0 32.896 14.72 32.896 32.896v127.573334l112.213334-0.042667-68.693334 119.125333c-6.912 11.861333-7.68 26.197333-2.474666 38.741334l2.602666 5.290666 54.570667 93.610667H96.896c-15.232 0-32.896-14.378667-32.896-25.642667v-205.44c0-11.306667 17.664-25.642667 32.896-25.642666h329.130667v-127.573334c0-18.176 14.762667-32.896 32.938666-32.896z m267.818667 238.634667l-40.661333 70.442667 42.24 71.424 82.986666 0.853333 40.661334-70.4-42.24-71.466667-82.986667-0.853333z m-522.922667 10.069333a40.618667 40.618667 0 0 0-41.130666 40.106667c0 22.186667 18.432 40.106667 41.130666 40.106667a40.618667 40.618667 0 0 0 41.173334-40.106667c0-22.144-18.432-40.106667-41.173334-40.106667z m131.669334 0a40.618667 40.618667 0 0 0-41.130667 40.106667c0 22.186667 18.389333 40.106667 41.130667 40.106667a40.618667 40.618667 0 0 0 41.130666-40.106667c0-22.144-18.432-40.106667-41.130666-40.106667zM458.965333 128c152.661333 0 276.48 121.770667 276.48 271.957333 0 27.008-4.010667 53.077333-11.477333 77.653334h-62.592a210.090667 210.090667 0 0 0 14.805333-77.653334c0-118.016-97.28-213.674667-217.216-213.674666-119.978667 0-217.258667 95.658667-217.258666 213.674666 0 27.392 5.248 53.589333 14.805333 77.653334H193.92a267.861333 267.861333 0 0 1-11.434667-77.653334C182.485333 249.770667 306.261333 128 458.965333 128z m0 116.565333c87.253333 0 157.952 69.546667 157.952 155.392h-59.221333c0-53.632-44.202667-97.152-98.730667-97.152s-98.773333 43.52-98.773333 97.152H300.970667c0-85.845333 70.741333-155.392 157.994666-155.392z" fill="#CBA43F" p-id="5351"></path></svg>