<?xml version="1.0" standalone="no"?><!DOCTYPE svg PUBLIC "-//W3C//DTD SVG 1.1//EN" "http://www.w3.org/Graphics/SVG/1.1/DTD/svg11.dtd"><svg t="1727966691652" class="icon" viewBox="0 0 1024 1024" version="1.1" xmlns="http://www.w3.org/2000/svg" p-id="4814" xmlns:xlink="http://www.w3.org/1999/xlink" width="48" height="48"><path d="M898.852007 246.888973l-241.318648-209.120142v118.366376l-363.132549-0.858843v174.260033l363.132549-0.421319v148.450183z" fill="#8CCBF4" p-id="4815"></path><path d="M657.525256 507.948854a30.387644 30.387644 0 0 1-30.37549-30.383593V359.535131l-332.712495 0.384859h-0.036461a30.371439 30.371439 0 0 1-30.383593-30.383593V155.276364a30.383593 30.383593 0 0 1 8.924674-21.511584c5.716167-5.699962 13.413343-8.786935 21.527789-8.872009l332.680086 0.789974V37.768831a30.375491 30.375491 0 0 1 50.28282-22.961893l241.314597 209.120141a30.391695 30.391695 0 0 1 1.101912 44.923155l-241.318648 230.676288a30.383593 30.383593 0 0 1-21.005191 8.422332z m0.008103-209.217369a30.379542 30.379542 0 0 1 30.383593 30.383593v77.372832l165.813394-158.501076-165.813394-143.686036v51.834409a30.375491 30.375491 0 0 1-30.383593 30.383593h-0.072921l-332.680086-0.789974v113.383467l332.712495-0.380808h0.040512z" fill="#8CCBF4" p-id="4816"></path><path d="M294.396759 804.330675l0.004051-649.054311L108.51804 329.536397v474.794278z" fill="#8CCBF4" p-id="4817"></path><path d="M294.396759 834.714268H108.51804a30.383593 30.383593 0 0 1-30.383593-30.383593v-474.794278a30.383593 30.383593 0 0 1 9.605267-22.167869l185.878719-174.260033a30.383593 30.383593 0 0 1 51.16597 22.167869v649.054311a30.391695 30.391695 0 0 1-30.387644 30.383593z m-155.495126-60.767186H264.013166V225.409799L138.901633 342.698569v431.248513z" fill="#8CCBF4" p-id="4818"></path><path d="M729.202177 978.594759v-174.264084H108.51804L294.396759 978.594759z" fill="#8CCBF4" p-id="4819"></path><path d="M729.202177 1008.978352H294.396759a30.411951 30.411951 0 0 1-20.782377-8.215724L87.739714 826.494493a30.387644 30.387644 0 0 1 20.782377-52.547411H729.206229c16.783897 0 30.383593 13.599696 30.383592 30.383593v174.268135a30.383593 30.383593 0 0 1-30.387644 30.379542z m-422.78972-60.767186h392.406128v-113.50095H185.35207l121.060387 113.50095z" fill="#8CCBF4" p-id="4820"></path><path d="M729.202177 978.594759l-0.004051-426.881378 185.88277-186.38106v438.998354z" fill="#8CCBF4" p-id="4821"></path><path d="M729.194075 1008.978352a30.383593 30.383593 0 0 1-30.37549-30.383593l-0.004052-426.881378a30.383593 30.383593 0 0 1 8.867958-21.454867l185.88277-186.385112a30.383593 30.383593 0 0 1 51.899228 21.454867v438.998355a30.391695 30.391695 0 0 1-9.601215 22.167869l-185.878719 174.268135a30.383593 30.383593 0 0 1-20.79048 8.215724z m30.387644-444.702368l0.004051 344.18534 125.111533-117.292822v-352.344347l-125.115584 125.451829z" fill="#8CCBF4" p-id="4822"></path></svg>