<?xml version="1.0" standalone="no"?><!DOCTYPE svg PUBLIC "-//W3C//DTD SVG 1.1//EN" "http://www.w3.org/Graphics/SVG/1.1/DTD/svg11.dtd"><svg t="1727966743425" class="icon" viewBox="0 0 1024 1024" version="1.1" xmlns="http://www.w3.org/2000/svg" p-id="6249" xmlns:xlink="http://www.w3.org/1999/xlink" width="48" height="48"><path d="M847.839608 220.357244L828.640976 239.555876 467.366709 600.73015 264.78114 398.244573c-6.499537-6.499537-17.098782-6.499537-23.698312 0l-42.896945 42.896944c-6.499537 6.499537-6.499537 17.098782 0 23.598319l202.58557 202.485577 54.696104 54.696104c6.499537 6.499537 17.098782 6.499537 23.698312 0l54.696104-54.696104L882.437144 318.850228c84.194003 161.088526 56.195997 365.473967-84.293996 497.664551C636.454665 968.703939 379.972934 966.704081 220.584288 812.0151 52.696246 649.226695 51.196353 381.245784 215.984615 216.457522c115.791752-115.691759 282.479879-149.289366 427.869523-100.992807 5.999573 1.999858 12.699095 0.599957 17.198775-3.999715l47.296631-47.296631c8.499395-8.499395 5.599601-22.898369-5.499608-27.398048C510.963604-40.124202 281.979914 3.572686 132.290577 167.960976-47.396624 365.346916-43.496902 672.025071 140.789971 865.211311 340.075776 1073.896446 670.952208 1076.896232 873.937749 874.010684c188.186595-187.98661 199.285805-485.865392 33.497614-686.951068-6.299551-7.699452-17.898725-8.399402-24.898227-1.299908l-34.697528 34.597536z" fill="#EFEFEF" p-id="6250"></path></svg>