<?xml version="1.0" standalone="no"?><!DOCTYPE svg PUBLIC "-//W3C//DTD SVG 1.1//EN" "http://www.w3.org/Graphics/SVG/1.1/DTD/svg11.dtd"><svg t="1727966630591" class="icon" viewBox="0 0 1024 1024" version="1.1" xmlns="http://www.w3.org/2000/svg" p-id="4385" xmlns:xlink="http://www.w3.org/1999/xlink" width="48" height="48"><path d="M751.786667 576l-195.2-42.666667C618.666667 501.546667 661.333333 436.906667 661.333333 362.666667v-85.333334c0-105.6-86.4-192-192-192s-192 86.4-192 192v85.333334c0 74.24 42.666667 138.88 104.746667 170.666666l-195.2 42.666667A127.914667 127.914667 0 0 0 85.333333 701.226667V853.333333c0 47.146667 38.186667 85.333333 85.333334 85.333334h597.333333c47.146667 0 85.333333-38.186667 85.333333-85.333334v-152.106666c0-60.586667-42.453333-112.853333-101.546666-125.226667zM757.333333 234.666667h128c17.706667 0 32-14.293333 32-32S903.04 170.666667 885.333333 170.666667h-128c-17.706667 0-32 14.293333-32 32s14.293333 32 32 32zM885.333333 298.666667h-128c-17.706667 0-32 14.293333-32 32s14.293333 32 32 32h128c17.706667 0 32-14.293333 32-32s-14.293333-32-32-32z" p-id="4386" fill="#8CCBF4"></path><path d="M885.333333 426.666667h-128c-17.706667 0-32 14.293333-32 32s14.293333 32 32 32h128c17.706667 0 32-14.293333 32-32s-14.293333-32-32-32z" p-id="4387" fill="#8CCBF4"></path></svg>